<svg xmlns="http://www.w3.org/2000/svg" viewBox="0 0 320 180" role="img" aria-label="Conservation score bar chart per residue, 0 to 8 scale">
  <title>Conservation prediction</title>
  <g font-family="system-ui, sans-serif">
    <rect width="320" height="180" rx="12" fill="currentColor" fill-opacity="0.04" />
    <text x="16" y="26" font-size="12" font-weight="600" fill="currentColor">Conservation (0–8)</text>
    <g transform="translate(16,48)">
      <line x1="0" y1="100" x2="288" y2="100" stroke="currentColor" stroke-opacity="0.2" />
      <g fill="#4a8c7a">
        <rect x="0"   y="62" width="10" height="38" />
        <rect x="12"  y="50" width="10" height="50" fill-opacity="0.85" />
        <rect x="24"  y="30" width="10" height="70" fill-opacity="0.95" />
        <rect x="36"  y="18" width="10" height="82" />
        <rect x="48"  y="38" width="10" height="62" fill-opacity="0.9" />
        <rect x="60"  y="70" width="10" height="30" fill-opacity="0.6" />
        <rect x="72"  y="56" width="10" height="44" fill-opacity="0.75" />
        <rect x="84"  y="26" width="10" height="74" />
        <rect x="96"  y="14" width="10" height="86" />
        <rect x="108" y="34" width="10" height="66" fill-opacity="0.9" />
        <rect x="120" y="60" width="10" height="40" fill-opacity="0.7" />
        <rect x="132" y="78" width="10" height="22" fill-opacity="0.55" />
        <rect x="144" y="44" width="10" height="56" fill-opacity="0.85" />
        <rect x="156" y="22" width="10" height="78" />
        <rect x="168" y="10" width="10" height="90" />
        <rect x="180" y="28" width="10" height="72" fill-opacity="0.95" />
        <rect x="192" y="52" width="10" height="48" fill-opacity="0.8" />
        <rect x="204" y="74" width="10" height="26" fill-opacity="0.6" />
        <rect x="216" y="46" width="10" height="54" fill-opacity="0.85" />
        <rect x="228" y="20" width="10" height="80" />
        <rect x="240" y="40" width="10" height="60" fill-opacity="0.9" />
        <rect x="252" y="64" width="10" height="36" fill-opacity="0.7" />
        <rect x="264" y="82" width="10" height="18" fill-opacity="0.5" />
        <rect x="276" y="52" width="10" height="48" fill-opacity="0.8" />
      </g>
    </g>
    <g font-size="9" fill="currentColor" fill-opacity="0.6">
      <text x="16" y="166">low</text>
      <text x="304" y="166" text-anchor="end">high</text>
    </g>
  </g>
</svg>
